<svg width="35" height="32" viewBox="0 0 35 32" fill="none" xmlns="http://www.w3.org/2000/svg">
<path fill-rule="evenodd" clip-rule="evenodd" d="M24 29.0059V15.1798C24 14.0809 23.1033 13.1866 22.0011 13.1866H7.9611C7.58033 13.1866 7.22939 12.9793 7.04576 12.6464L6.7074 12.0329C6.35645 11.396 5.68486 11 4.95594 11H2.99894C1.8967 11 1 11.8943 1 12.9932V29.0059C1 30.1057 1.8967 31 2.99894 31H22.0011C23.1033 31 24 30.1057 24 29.0059ZM2.99894 11.952H4.95594C5.33671 11.952 5.68765 12.1593 5.87128 12.4921L6.20964 13.1057C6.56059 13.7425 7.23218 14.1386 7.9611 14.1386H22.0011C22.5771 14.1386 23.0455 14.6053 23.0455 15.1798V16.7212H1.9545V12.9932C1.9545 12.4187 2.42289 11.952 2.99894 11.952ZM1.9545 17.6732V29.0059C1.9545 29.5804 2.42289 30.048 2.99894 30.048H22.0011C22.5771 30.048 23.0455 29.5804 23.0455 29.0059V17.6732H1.9545Z" fill="white"/>
<path d="M7.04576 12.6464L6.78306 12.7913L6.78309 12.7914L7.04576 12.6464ZM6.7074 12.0329L6.44465 12.1777L6.44469 12.1777L6.7074 12.0329ZM5.87128 12.4921L6.13399 12.3473L6.13395 12.3472L5.87128 12.4921ZM6.20964 13.1057L6.47239 12.9609L6.47235 12.9608L6.20964 13.1057ZM23.0455 16.7212V17.0212H23.3455V16.7212H23.0455ZM1.9545 16.7212H1.6545V17.0212H1.9545V16.7212ZM1.9545 17.6732V17.3732H1.6545V17.6732H1.9545ZM23.0455 17.6732H23.3455V17.3732H23.0455V17.6732ZM23.7 15.1798V29.0059H24.3V15.1798H23.7ZM22.0011 13.4866C22.9384 13.4866 23.7 14.2474 23.7 15.1798H24.3C24.3 13.9145 23.2682 12.8866 22.0011 12.8866V13.4866ZM7.9611 13.4866H22.0011V12.8866H7.9611V13.4866ZM6.78309 12.7914C7.01952 13.2199 7.4711 13.4866 7.9611 13.4866V12.8866C7.68956 12.8866 7.43926 12.7386 7.30843 12.5015L6.78309 12.7914ZM6.44469 12.1777L6.78306 12.7913L7.30846 12.5016L6.9701 11.888L6.44469 12.1777ZM4.95594 11.3C5.57588 11.3 6.14664 11.6369 6.44465 12.1777L6.97014 11.8881C6.56627 11.1552 5.79383 10.7 4.95594 10.7V11.3ZM2.99894 11.3H4.95594V10.7H2.99894V11.3ZM1.3 12.9932C1.3 12.0608 2.0616 11.3 2.99894 11.3V10.7C1.73181 10.7 0.7 11.7279 0.7 12.9932H1.3ZM1.3 29.0059V12.9932H0.7V29.0059H1.3ZM2.99894 30.7C2.06169 30.7 1.3 29.9393 1.3 29.0059H0.7C0.7 30.272 1.73172 31.3 2.99894 31.3V30.7ZM22.0011 30.7H2.99894V31.3H22.0011V30.7ZM23.7 29.0059C23.7 29.9393 22.9383 30.7 22.0011 30.7V31.3C23.2683 31.3 24.3 30.272 24.3 29.0059H23.7ZM4.95594 11.652H2.99894V12.252H4.95594V11.652ZM6.13395 12.3472C5.89752 11.9187 5.44594 11.652 4.95594 11.652V12.252C5.22748 12.252 5.47778 12.3999 5.60861 12.637L6.13395 12.3472ZM6.47235 12.9608L6.13399 12.3473L5.60858 12.637L5.94694 13.2506L6.47235 12.9608ZM7.9611 13.8386C7.34116 13.8386 6.7704 13.5017 6.47239 12.9609L5.9469 13.2505C6.35077 13.9834 7.12321 14.4386 7.9611 14.4386V13.8386ZM22.0011 13.8386H7.9611V14.4386H22.0011V13.8386ZM23.3455 15.1798C23.3455 14.4387 22.7419 13.8386 22.0011 13.8386V14.4386C22.4123 14.4386 22.7455 14.7719 22.7455 15.1798H23.3455ZM23.3455 16.7212V15.1798H22.7455V16.7212H23.3455ZM1.9545 17.0212H23.0455V16.4212H1.9545V17.0212ZM1.6545 12.9932V16.7212H2.2545V12.9932H1.6545ZM2.99894 11.652C2.25812 11.652 1.6545 12.2521 1.6545 12.9932H2.2545C2.2545 12.5853 2.58765 12.252 2.99894 12.252V11.652ZM2.2545 29.0059V17.6732H1.6545V29.0059H2.2545ZM2.99894 29.748C2.588 29.748 2.2545 29.4141 2.2545 29.0059H1.6545C1.6545 29.7466 2.25777 30.348 2.99894 30.348V29.748ZM22.0011 29.748H2.99894V30.348H22.0011V29.748ZM22.7455 29.0059C22.7455 29.4141 22.412 29.748 22.0011 29.748V30.348C22.7422 30.348 23.3455 29.7466 23.3455 29.0059H22.7455ZM22.7455 17.6732V29.0059H23.3455V17.6732H22.7455ZM1.9545 17.9732H23.0455V17.3732H1.9545V17.9732Z" fill="white"/>
<rect x="26" width="3" height="15" fill="white"/>
<rect x="35" y="6" width="3" height="15" transform="rotate(90 35 6)" fill="white"/>
</svg>
