<svg width="20" height="20" viewBox="0 0 20 20" fill="none" xmlns="http://www.w3.org/2000/svg">
<path id="Combined Shape" fill-rule="evenodd" clip-rule="evenodd" d="M0.941177 0C0.421379 0 0 0.421379 0 0.941176V6.11765C0 6.63744 0.421379 7.05882 0.941176 7.05882H6.11765C6.63744 7.05882 7.05882 6.63744 7.05882 6.11765V0.941177C7.05882 0.421379 6.63744 0 6.11765 0H0.941177ZM0.941177 12.9413C0.421379 12.9413 0 13.3627 0 13.8825V19.0589C0 19.5787 0.421379 20.0001 0.941176 20.0001H6.11765C6.63744 20.0001 7.05882 19.5787 7.05882 19.0589V13.8825C7.05882 13.3627 6.63744 12.9413 6.11765 12.9413H0.941177ZM12.9412 0.941176C12.9412 0.421379 13.3626 0 13.8824 0H19.0588C19.5786 0 20 0.421379 20 0.941177V6.11765C20 6.63744 19.5786 7.05882 19.0588 7.05882H13.8824C13.3626 7.05882 12.9412 6.63744 12.9412 6.11765V0.941176ZM13.8824 12.9413C13.3626 12.9413 12.9412 13.3627 12.9412 13.8825V19.0589C12.9412 19.5787 13.3626 20.0001 13.8824 20.0001H19.0588C19.5786 20.0001 20 19.5787 20 19.0589V13.8825C20 13.3627 19.5786 12.9413 19.0588 12.9413H13.8824Z" fill="white"/>
</svg>
