<svg width="21" height="20" viewBox="0 0 21 20" fill="none" xmlns="http://www.w3.org/2000/svg">
<path d="M20.0203 10.4409C20.0243 10.4368 20.0243 10.4368 20.0284 10.4327C20.0407 10.4164 20.0529 10.4041 20.0611 10.3878C20.0651 10.3837 20.0651 10.3796 20.0692 10.3756C20.0774 10.3592 20.0896 10.3429 20.0978 10.3266C20.0978 10.3225 20.1019 10.3184 20.1019 10.3184C20.11 10.3021 20.1182 10.2858 20.1264 10.2654C20.1264 10.2613 20.1264 10.2613 20.1305 10.2572C20.1386 10.2409 20.1427 10.2205 20.1509 10.2C20.1509 10.196 20.1509 10.1919 20.1549 10.1919C20.159 10.1715 20.1672 10.1552 20.1672 10.1347C20.1672 10.1266 20.1672 10.1225 20.1713 10.1143C20.1754 10.098 20.1754 10.0817 20.1794 10.0654C20.1835 10.0409 20.1835 10.0205 20.1835 9.99597C20.1835 9.97148 20.1835 9.95107 20.1794 9.92658C20.1794 9.91025 20.1754 9.89393 20.1713 9.8776C20.1713 9.86944 20.1713 9.86536 20.1672 9.85719C20.1631 9.83678 20.159 9.82046 20.1549 9.80005C20.1549 9.79597 20.1549 9.79189 20.1509 9.79189C20.1468 9.77148 20.1386 9.75515 20.1305 9.73474C20.1305 9.73066 20.1305 9.73066 20.1264 9.72658C20.1182 9.71025 20.11 9.68985 20.1019 9.67352C20.1019 9.66944 20.0978 9.66536 20.0978 9.66536C20.0896 9.64903 20.0815 9.6327 20.0692 9.61638C20.0651 9.61229 20.0651 9.60821 20.0611 9.60413C20.0488 9.5878 20.0407 9.57148 20.0284 9.55923C20.0243 9.55515 20.0243 9.55515 20.0203 9.55107C20.0039 9.53474 19.9917 9.51434 19.9713 9.49801L15.9345 5.46536C15.6611 5.19189 15.2162 5.19189 14.9427 5.46536C14.6692 5.73883 14.6692 6.18372 14.9427 6.45719L17.7835 9.29801H6.48964C6.10188 9.29801 5.7876 9.61229 5.7876 9.99597C5.7876 10.3837 6.10188 10.698 6.48964 10.698H17.7876L14.9672 13.5184C14.6937 13.7919 14.6937 14.2368 14.9672 14.5103C15.1019 14.6449 15.2815 14.7143 15.4611 14.7143C15.6407 14.7143 15.8203 14.6449 15.9549 14.5103L19.9672 10.498C19.9876 10.4735 20.0039 10.4572 20.0203 10.4409Z" fill="white"/>
<path d="M3.82441 1.4H9.0489C9.43666 1.4 9.75095 1.08571 9.75095 0.702041C9.75095 0.314286 9.43666 0 9.0489 0H3.82441C1.73054 0 0.0244141 1.70612 0.0244141 3.8V16.1959C0.0244141 18.2898 1.73054 19.9959 3.82441 19.9959H8.96319C9.35094 19.9959 9.66523 19.6816 9.66523 19.298C9.66523 18.9102 9.35094 18.5959 8.96319 18.5959H3.82441C2.50197 18.5959 1.42441 17.5184 1.42441 16.1959V3.8C1.4285 2.47347 2.50197 1.4 3.82441 1.4Z" fill="white"/>
</svg>
