<svg width="25" height="22" viewBox="0 0 25 22" fill="none" xmlns="http://www.w3.org/2000/svg">
<path fill-rule="evenodd" clip-rule="evenodd" d="M24 19.0059V5.1798C24 4.08093 23.1033 3.18658 22.0011 3.18658H7.9611C7.58033 3.18658 7.22939 2.97927 7.04576 2.64645L6.7074 2.03286C6.35645 1.39604 5.68486 1 4.95594 1H2.99894C1.8967 1 1 1.89434 1 2.99321V19.0059C1 20.1057 1.8967 21 2.99894 21H22.0011C23.1033 21 24 20.1057 24 19.0059ZM2.99894 1.95198H4.95594C5.33671 1.95198 5.68765 2.1593 5.87128 2.49212L6.20964 3.1057C6.56059 3.74253 7.23218 4.13857 7.9611 4.13857H22.0011C22.5771 4.13857 23.0455 4.60526 23.0455 5.1798V6.72119H1.9545V2.99321C1.9545 2.41868 2.42289 1.95198 2.99894 1.95198ZM1.9545 7.67317V19.0059C1.9545 19.5804 2.42289 20.048 2.99894 20.048H22.0011C22.5771 20.048 23.0455 19.5804 23.0455 19.0059V7.67317H1.9545Z" fill="white"/>
<path d="M7.04576 2.64645L6.78306 2.79131L6.78309 2.79137L7.04576 2.64645ZM6.7074 2.03286L6.44465 2.17766L6.44469 2.17773L6.7074 2.03286ZM5.87128 2.49212L6.13399 2.34725L6.13395 2.3472L5.87128 2.49212ZM6.20964 3.1057L6.47239 2.96091L6.47235 2.96084L6.20964 3.1057ZM23.0455 6.72119V7.02119H23.3455V6.72119H23.0455ZM1.9545 6.72119H1.6545V7.02119H1.9545V6.72119ZM1.9545 7.67317V7.37317H1.6545V7.67317H1.9545ZM23.0455 7.67317H23.3455V7.37317H23.0455V7.67317ZM23.7 5.1798V19.0059H24.3V5.1798H23.7ZM22.0011 3.48658C22.9384 3.48658 23.7 4.2474 23.7 5.1798H24.3C24.3 3.91445 23.2682 2.88658 22.0011 2.88658V3.48658ZM7.9611 3.48658H22.0011V2.88658H7.9611V3.48658ZM6.78309 2.79137C7.01952 3.21989 7.4711 3.48658 7.9611 3.48658V2.88658C7.68956 2.88658 7.43926 2.73864 7.30843 2.50152L6.78309 2.79137ZM6.44469 2.17773L6.78306 2.79131L7.30846 2.50158L6.9701 1.888L6.44469 2.17773ZM4.95594 1.3C5.57588 1.3 6.14664 1.63688 6.44465 2.17766L6.97014 1.88807C6.56627 1.1552 5.79383 0.7 4.95594 0.7V1.3ZM2.99894 1.3H4.95594V0.7H2.99894V1.3ZM1.3 2.99321C1.3 2.06082 2.0616 1.3 2.99894 1.3V0.7C1.73181 0.7 0.7 1.72787 0.7 2.99321H1.3ZM1.3 19.0059V2.99321H0.7V19.0059H1.3ZM2.99894 20.7C2.06169 20.7 1.3 19.9393 1.3 19.0059H0.7C0.7 20.272 1.73172 21.3 2.99894 21.3V20.7ZM22.0011 20.7H2.99894V21.3H22.0011V20.7ZM23.7 19.0059C23.7 19.9393 22.9383 20.7 22.0011 20.7V21.3C23.2683 21.3 24.3 20.272 24.3 19.0059H23.7ZM4.95594 1.65198H2.99894V2.25198H4.95594V1.65198ZM6.13395 2.3472C5.89752 1.91867 5.44594 1.65198 4.95594 1.65198V2.25198C5.22748 2.25198 5.47778 2.39992 5.60861 2.63705L6.13395 2.3472ZM6.47235 2.96084L6.13399 2.34725L5.60858 2.63699L5.94694 3.25057L6.47235 2.96084ZM7.9611 3.83857C7.34116 3.83857 6.7704 3.50169 6.47239 2.96091L5.9469 3.2505C6.35077 3.98337 7.12321 4.43857 7.9611 4.43857V3.83857ZM22.0011 3.83857H7.9611V4.43857H22.0011V3.83857ZM23.3455 5.1798C23.3455 4.43866 22.7419 3.83857 22.0011 3.83857V4.43857C22.4123 4.43857 22.7455 4.77187 22.7455 5.1798H23.3455ZM23.3455 6.72119V5.1798H22.7455V6.72119H23.3455ZM1.9545 7.02119H23.0455V6.42119H1.9545V7.02119ZM1.6545 2.99321V6.72119H2.2545V2.99321H1.6545ZM2.99894 1.65198C2.25812 1.65198 1.6545 2.25207 1.6545 2.99321H2.2545C2.2545 2.58528 2.58765 2.25198 2.99894 2.25198V1.65198ZM2.2545 19.0059V7.67317H1.6545V19.0059H2.2545ZM2.99894 19.748C2.588 19.748 2.2545 19.4141 2.2545 19.0059H1.6545C1.6545 19.7466 2.25777 20.348 2.99894 20.348V19.748ZM22.0011 19.748H2.99894V20.348H22.0011V19.748ZM22.7455 19.0059C22.7455 19.4141 22.412 19.748 22.0011 19.748V20.348C22.7422 20.348 23.3455 19.7466 23.3455 19.0059H22.7455ZM22.7455 7.67317V19.0059H23.3455V7.67317H22.7455ZM1.9545 7.97317H23.0455V7.37317H1.9545V7.97317Z" fill="white"/>
</svg>
