<svg width="24" height="24" viewBox="0 0 24 24" fill="none" xmlns="http://www.w3.org/2000/svg">
<path d="M9.57391 7.67477C10.2139 7.28477 10.9589 7.08977 11.8089 7.08977C12.4289 7.08977 12.9789 7.19477 13.4589 7.40477C13.9389 7.61477 14.3089 7.90477 14.5689 8.27477C14.8389 8.64477 14.9739 9.07477 14.9739 9.56477C14.9739 10.0948 14.8489 10.5498 14.5989 10.9298C14.3589 11.3098 13.9939 11.7498 13.5039 12.2498C13.0939 12.6698 12.7839 13.0298 12.5739 13.3298C12.3639 13.6198 12.2339 13.9498 12.1839 14.3198L12.1239 14.7398H11.0139V14.1248C11.0139 13.5648 11.1139 13.0948 11.3139 12.7148C11.5139 12.3248 11.8039 11.9048 12.1839 11.4548C12.4739 11.1148 12.6889 10.8198 12.8289 10.5698C12.9789 10.3198 13.0539 10.0398 13.0539 9.72977C13.0539 9.37977 12.9289 9.10977 12.6789 8.91977C12.4389 8.71977 12.1039 8.61977 11.6739 8.61977C10.9739 8.61977 10.2739 8.83477 9.57391 9.26477V7.67477ZM10.5339 15.7898H12.6489V17.8898H10.5339V15.7898Z" fill="#333539"/>
<path d="M23.2 12C23.2 18.1856 18.1856 23.2 12 23.2C5.81441 23.2 0.8 18.1856 0.8 12C0.8 5.81441 5.81441 0.8 12 0.8C18.1856 0.8 23.2 5.81441 23.2 12Z" stroke="#333539" stroke-width="1.6"/>
</svg>
