<svg width="23" height="22" viewBox="0 0 23 22" fill="none" xmlns="http://www.w3.org/2000/svg">
<path fill-rule="evenodd" clip-rule="evenodd" d="M18.1837 20.2218C18.3195 20.8234 17.791 21.1988 17.2661 20.8875L11.6486 17.5563C11.5828 17.5173 11.4169 17.5178 11.3519 17.5563L5.73435 20.8875C5.20333 21.2024 4.68257 20.8164 4.81677 20.2218L6.2532 13.8568C6.27002 13.7823 6.21835 13.6249 6.16151 13.575L1.25326 9.26888C0.789281 8.86182 0.99596 8.24793 1.60374 8.19163L8.10903 7.58908C8.18522 7.58202 8.31916 7.4843 8.34908 7.4149L10.9332 1.42238C11.1774 0.855911 11.8259 0.862511 12.0673 1.42238L14.6514 7.4149C14.6817 7.48508 14.8161 7.5821 14.8914 7.58908L21.3967 8.19163C22.0117 8.24859 22.2058 8.86656 21.7472 9.26888L16.839 13.575C16.7815 13.6254 16.7306 13.7831 16.7473 13.8568L18.1837 20.2218ZM5.78415 19.8646L10.9102 16.8135C11.2468 16.6139 11.7515 16.6126 12.0903 16.8135L17.2143 19.8521L15.9034 14.0468C15.8173 13.6654 15.972 13.1857 16.268 12.926L20.738 9.00438L14.8116 8.44931C14.4218 8.41321 14.0127 8.11801 13.8569 7.75661L11.4953 2.28009L9.14361 7.75661C8.98879 8.11565 8.58125 8.41297 8.18892 8.44931L2.26046 8.99843L6.73244 12.926C7.02652 13.184 7.18373 13.6629 7.0971 14.0468L5.78415 19.8646Z" fill="#636363"/>
<path d="M17.2661 20.8875L17.0876 21.1886L17.2661 20.8875ZM18.1837 20.2218L18.5251 20.1447L18.1837 20.2218ZM11.6486 17.5563L11.4701 17.8574H11.4701L11.6486 17.5563ZM11.3519 17.5563L11.5304 17.8574L11.5304 17.8574L11.3519 17.5563ZM5.73435 20.8875L5.55583 20.5865H5.55583L5.73435 20.8875ZM4.81677 20.2218L5.15819 20.2988L4.81677 20.2218ZM6.2532 13.8568L6.59462 13.9339L6.59462 13.9339L6.2532 13.8568ZM6.16151 13.575L5.93069 13.8381L5.93069 13.8381L6.16151 13.575ZM1.25326 9.26888L1.02243 9.53197H1.02243L1.25326 9.26888ZM1.60374 8.19163L1.63602 8.54014H1.63602L1.60374 8.19163ZM8.10903 7.58908L8.07675 7.24057H8.07675L8.10903 7.58908ZM8.34908 7.4149L8.02769 7.27631V7.27632L8.34908 7.4149ZM10.9332 1.42238L10.6118 1.28379V1.28379L10.9332 1.42238ZM12.0673 1.42238L12.3887 1.28379V1.28379L12.0673 1.42238ZM14.6514 7.4149L14.9728 7.27632L14.9728 7.27631L14.6514 7.4149ZM14.8914 7.58908L14.9237 7.24057H14.9237L14.8914 7.58908ZM21.3967 8.19163L21.429 7.84312L21.3967 8.19163ZM21.7472 9.26888L21.9781 9.53197L21.7472 9.26888ZM16.839 13.575L16.6082 13.3119L16.6081 13.3119L16.839 13.575ZM16.7473 13.8568L17.0887 13.7798L17.0887 13.7798L16.7473 13.8568ZM10.9102 16.8135L10.7317 16.5125L10.7312 16.5127L10.9102 16.8135ZM5.78415 19.8646L5.44274 19.7875L5.26349 20.5818L5.96316 20.1653L5.78415 19.8646ZM12.0903 16.8135L11.9117 17.1146L12.0903 16.8135ZM17.2143 19.8521L17.0358 20.1531L17.7347 20.5676L17.5557 19.775L17.2143 19.8521ZM15.9034 14.0468L15.562 14.1238L15.562 14.1239L15.9034 14.0468ZM16.268 12.926L16.4989 13.1891L16.268 12.926ZM20.738 9.00438L20.9688 9.26748L21.5795 8.73167L20.7706 8.65591L20.738 9.00438ZM14.8116 8.44931L14.8442 8.10084L14.8438 8.1008L14.8116 8.44931ZM13.8569 7.75661L13.5355 7.8952L13.8569 7.75661ZM11.4953 2.28009L11.8167 2.1415L11.4946 1.39462L11.1737 2.14199L11.4953 2.28009ZM9.14361 7.75661L9.465 7.8952L9.46521 7.89471L9.14361 7.75661ZM8.18892 8.44931L8.2212 8.79782H8.2212L8.18892 8.44931ZM2.26046 8.99843L2.22818 8.64992L1.41863 8.72491L2.0295 9.26141L2.26046 8.99843ZM6.73244 12.926L6.50148 13.1889L6.50162 13.1891L6.73244 12.926ZM7.0971 14.0468L6.75569 13.9697L7.0971 14.0468ZM17.0876 21.1886C17.4512 21.4042 17.8669 21.4044 18.1772 21.181C18.4886 20.9568 18.6191 20.5611 18.5251 20.1447L17.8423 20.2988C17.8841 20.484 17.8182 20.5769 17.7682 20.6129C17.7169 20.6499 17.6059 20.6821 17.4447 20.5865L17.0876 21.1886ZM11.4701 17.8574L17.0876 21.1886L17.4447 20.5865L11.8271 17.2553L11.4701 17.8574ZM11.5304 17.8574C11.5118 17.8685 11.4973 17.8737 11.4912 17.8757C11.4877 17.8769 11.4851 17.8776 11.4836 17.878C11.4828 17.8782 11.4823 17.8783 11.4819 17.8784C11.4816 17.8785 11.4814 17.8785 11.4814 17.8785C11.4813 17.8785 11.4815 17.8785 11.4818 17.8784C11.4821 17.8784 11.4825 17.8783 11.483 17.8783C11.4841 17.8781 11.4856 17.8779 11.4874 17.8778C11.4911 17.8775 11.4955 17.8772 11.5003 17.8772C11.5051 17.8772 11.5095 17.8774 11.5132 17.8778C11.515 17.8779 11.5164 17.8781 11.5175 17.8782C11.5186 17.8784 11.5191 17.8785 11.5191 17.8785C11.5191 17.8785 11.5189 17.8784 11.5185 17.8783C11.5182 17.8783 11.5176 17.8781 11.5168 17.8779C11.5153 17.8776 11.5127 17.8768 11.5091 17.8757C11.503 17.8736 11.4886 17.8684 11.4701 17.8574L11.8271 17.2553C11.7112 17.1865 11.575 17.1772 11.4996 17.1772C11.4244 17.1773 11.2887 17.1869 11.1734 17.2553L11.5304 17.8574ZM5.91287 21.1886L11.5304 17.8574L11.1734 17.2553L5.55583 20.5865L5.91287 21.1886ZM4.47536 20.1447C4.38229 20.5571 4.51081 20.9525 4.81951 21.1782C5.12913 21.4047 5.54575 21.4063 5.91287 21.1886L5.55583 20.5865C5.39192 20.6837 5.28266 20.6497 5.2327 20.6132C5.18181 20.576 5.11706 20.481 5.15819 20.2988L4.47536 20.1447ZM5.91179 13.7798L4.47536 20.1447L5.15819 20.2988L6.59462 13.9339L5.91179 13.7798ZM5.93069 13.8381C5.91437 13.8238 5.90489 13.8117 5.90105 13.8065C5.89881 13.8035 5.89732 13.8012 5.8965 13.7999C5.89607 13.7992 5.89577 13.7987 5.89558 13.7984C5.89539 13.7981 5.89529 13.7979 5.89529 13.7979C5.89528 13.7979 5.89554 13.7983 5.89601 13.7993C5.89648 13.8003 5.89708 13.8016 5.89778 13.8032C5.89922 13.8066 5.90078 13.8107 5.90226 13.8153C5.90373 13.8198 5.90489 13.824 5.90572 13.8276C5.90613 13.8293 5.90641 13.8307 5.90661 13.8318C5.9068 13.8328 5.90686 13.8333 5.90686 13.8333C5.90686 13.8333 5.90675 13.8324 5.90664 13.8308C5.90654 13.8293 5.90641 13.8265 5.90643 13.8228C5.90648 13.8162 5.90703 13.8009 5.91179 13.7798L6.59462 13.9339C6.62434 13.8022 6.59108 13.6697 6.56771 13.5981C6.54435 13.5265 6.49319 13.4004 6.39233 13.3119L5.93069 13.8381ZM1.02243 9.53197L5.93069 13.8381L6.39233 13.3119L1.48408 9.00578L1.02243 9.53197ZM1.57146 7.84312C1.15058 7.88211 0.81383 8.12598 0.694166 8.4892C0.574053 8.85377 0.701556 9.25046 1.02243 9.53197L1.48408 9.00578C1.34098 8.88023 1.33984 8.76645 1.35901 8.70824C1.37864 8.64867 1.44911 8.55745 1.63602 8.54014L1.57146 7.84312ZM8.07675 7.24057L1.57146 7.84312L1.63602 8.54014L8.14131 7.93759L8.07675 7.24057ZM8.02769 7.27632C8.0363 7.25635 8.04492 7.24358 8.04868 7.23833C8.05087 7.23527 8.05257 7.23316 8.05355 7.23198C8.05407 7.23137 8.05445 7.23092 8.0547 7.23064C8.05495 7.23036 8.05508 7.23022 8.05509 7.23021C8.05509 7.23021 8.05472 7.23061 8.05393 7.23136C8.05314 7.23211 8.05207 7.2331 8.0507 7.23428C8.04791 7.23671 8.04446 7.23946 8.04059 7.24228C8.03672 7.24509 8.03304 7.24751 8.02989 7.24941C8.02835 7.25034 8.02708 7.25106 8.02614 7.25157C8.02518 7.25208 8.0247 7.25231 8.02471 7.25231C8.02473 7.2523 8.02491 7.25221 8.02526 7.25206C8.0256 7.25191 8.02615 7.25168 8.02689 7.25138C8.02833 7.2508 8.03086 7.24984 8.03445 7.24871C8.04063 7.24676 8.05531 7.24256 8.07675 7.24057L8.14131 7.93759C8.27554 7.92516 8.39124 7.8528 8.45222 7.80846C8.51306 7.76423 8.61734 7.67671 8.67048 7.55349L8.02769 7.27632ZM10.6118 1.28379L8.02769 7.27631L8.67048 7.55349L11.2545 1.56097L10.6118 1.28379ZM12.3887 1.28379C12.2213 0.895586 11.8849 0.651421 11.5026 0.650006C11.119 0.648586 10.7808 0.891798 10.6118 1.28379L11.2545 1.56097C11.3298 1.38649 11.4379 1.34977 11.5 1.35C11.5634 1.35024 11.6719 1.38931 11.7459 1.56097L12.3887 1.28379ZM14.9728 7.27631L12.3887 1.28379L11.7459 1.56097L14.33 7.55349L14.9728 7.27631ZM14.9237 7.24057C14.9453 7.24257 14.9601 7.24679 14.9662 7.24873C14.9698 7.24986 14.9723 7.25081 14.9737 7.25138C14.9744 7.25167 14.975 7.2519 14.9753 7.25205C14.9756 7.25219 14.9758 7.25227 14.9758 7.25228C14.9758 7.25228 14.9757 7.25222 14.9754 7.25209C14.9752 7.25196 14.9748 7.25177 14.9743 7.25152C14.9734 7.251 14.9721 7.25028 14.9706 7.24935C14.9674 7.24744 14.9637 7.24502 14.9598 7.24221C14.9559 7.23941 14.9525 7.23666 14.9497 7.23426C14.9483 7.23308 14.9473 7.2321 14.9465 7.23137C14.9457 7.23063 14.9454 7.23024 14.9454 7.23026C14.9454 7.23026 14.9459 7.23086 14.947 7.23207C14.948 7.23327 14.9497 7.23539 14.9519 7.23846C14.9557 7.24376 14.9642 7.25647 14.9728 7.27632L14.33 7.55349C14.3834 7.6774 14.4882 7.76499 14.5492 7.80917C14.6102 7.85333 14.7257 7.92522 14.8592 7.93759L14.9237 7.24057ZM21.429 7.84312L14.9237 7.24057L14.8592 7.93759L21.3645 8.54014L21.429 7.84312ZM21.9781 9.53197C22.2958 9.25318 22.4248 8.85789 22.3078 8.4937C22.1904 8.12834 21.854 7.88249 21.429 7.84312L21.3645 8.54014C21.5544 8.55773 21.6225 8.64934 21.6413 8.70779C21.6605 8.7674 21.6572 8.88226 21.5164 9.00578L21.9781 9.53197ZM17.0698 13.8381L21.9781 9.53197L21.5164 9.00578L16.6082 13.3119L17.0698 13.8381ZM17.0887 13.7798C17.0935 13.801 17.094 13.8164 17.0941 13.8229C17.0941 13.8267 17.094 13.8294 17.0939 13.8309C17.0938 13.8317 17.0938 13.8323 17.0937 13.8327C17.0937 13.8331 17.0937 13.8333 17.0937 13.8333C17.0937 13.8333 17.0937 13.8328 17.0939 13.8317C17.0941 13.8307 17.0944 13.8293 17.0948 13.8275C17.0956 13.8239 17.0968 13.8197 17.0983 13.8152C17.0997 13.8106 17.1013 13.8065 17.1027 13.8032C17.1034 13.8015 17.104 13.8002 17.1045 13.7993C17.1049 13.7983 17.1052 13.7978 17.1052 13.7979C17.1051 13.7979 17.1048 13.7986 17.1039 13.7999C17.1031 13.8013 17.1016 13.8035 17.0993 13.8066C17.0955 13.8118 17.086 13.8239 17.0698 13.8381L16.6081 13.3119C16.5067 13.4009 16.4557 13.5275 16.4324 13.5992C16.4092 13.6708 16.3763 13.8029 16.4059 13.9339L17.0887 13.7798ZM18.5251 20.1447L17.0887 13.7798L16.4059 13.9339L17.8423 20.2988L18.5251 20.1447ZM10.7312 16.5127L5.60514 19.5638L5.96316 20.1653L11.0892 17.1143L10.7312 16.5127ZM12.2688 16.5125C11.8196 16.2461 11.178 16.2478 10.7317 16.5125L11.0887 17.1146C11.3156 16.98 11.6834 16.9791 11.9117 17.1146L12.2688 16.5125ZM17.3929 19.551L12.2688 16.5125L11.9117 17.1146L17.0358 20.1531L17.3929 19.551ZM15.562 14.1239L16.8729 19.9292L17.5557 19.775L16.2448 13.9697L15.562 14.1239ZM16.0372 12.6629C15.6446 13.0073 15.4477 13.6177 15.562 14.1238L16.2448 13.9697C16.1869 13.7132 16.2995 13.364 16.4989 13.1891L16.0372 12.6629ZM20.5071 8.74129L16.0372 12.6629L16.4989 13.1891L20.9688 9.26748L20.5071 8.74129ZM14.7789 8.79779L20.7053 9.35286L20.7706 8.65591L14.8442 8.10084L14.7789 8.79779ZM13.5355 7.8952C13.7423 8.37475 14.2626 8.74996 14.7793 8.79782L14.8438 8.1008C14.581 8.07646 14.2832 7.86128 14.1783 7.61802L13.5355 7.8952ZM11.1739 2.41868L13.5355 7.8952L14.1783 7.61802L11.8167 2.1415L11.1739 2.41868ZM9.46521 7.89471L11.8169 2.41819L11.1737 2.14199L8.82201 7.61851L9.46521 7.89471ZM8.2212 8.79782C8.74129 8.74965 9.25957 8.37161 9.465 7.8952L8.82222 7.61802C8.718 7.85969 8.42121 8.0763 8.15664 8.1008L8.2212 8.79782ZM2.29274 9.34694L8.2212 8.79782L8.15664 8.1008L2.22818 8.64992L2.29274 9.34694ZM6.96341 12.663L2.49142 8.73546L2.0295 9.26141L6.50148 13.1889L6.96341 12.663ZM7.43852 14.1238C7.55349 13.6144 7.35333 13.0051 6.96327 12.6629L6.50162 13.1891C6.69971 13.3629 6.81397 13.7115 6.75569 13.9697L7.43852 14.1238ZM6.12556 19.9416L7.43852 14.1238L6.75569 13.9697L5.44274 19.7875L6.12556 19.9416Z" fill="#C1BEBE"/>
</svg>
